<svg version="1.2" xmlns="http://www.w3.org/2000/svg" viewBox="0 0 1024 1024" width="1024" height="1024">
	<defs>
		<linearGradient id="g1" x2="1" gradientUnits="userSpaceOnUse" gradientTransform="matrix(154.38,-229.979,208.775,140.146,649.305,697.52)">
			<stop offset="0" stop-color="#a88641"/>
			<stop offset="1" stop-color="#d2be98"/>
		</linearGradient>
	</defs>
	<style>
		.s0 { fill: #101e32 } 
		.s1 { fill: url(#g1) } 
	</style>
	<g id="Layer 1">
		<path class="s0" d="m365.83 628.58l-40.09 0.08c-35.62 0.03-68.27-9.56-93.5-35.53-65.63-67.53-30.07-185.34 63.81-201.73 21.41-3.74 41.23-2.45 62.63-2.46l67.72-0.43 241.31 0.07c-2.82 5.64-9.19 15.27-12.61 20.91-9.14 15.08-18.85 29.92-28.02 45q-2.36-0.19-4.72-0.24c-19.6-0.42-40.07-0.48-59.7-0.21-25.89 0.36-52.75-3.88-73.01 15.76-9.92 9.77-15.51 23.11-15.52 37.02-0.11 13.64 5.27 29.32 15.14 38.9 18.24 17.73 37.9 15.53 60.83 15.47l37.86-0.1q-23.05 33.72-45.44 67.87c-6.8-0.49-14.66-0.19-21.63-0.49-17.34-0.6-34.38-4.68-50.1-12.01-27.45-12.96-48.57-36.37-58.64-65-11.75-33.34-8.28-65.61 6.69-97.07q-1.27-0.1-2.55-0.13c-18.46-0.57-39.29 0.01-57.92-0.17-12.15-0.11-40.53-0.7-50.9 1.69-9.28 2.1-17.82 6.65-24.73 13.19-20.69 19.62-20.35 55.96-0.82 76.22 6.75 6.9 15.26 11.83 24.61 14.26 10.43 2.64 28.62 1.62 40.01 1.73 20.63 0.2 41.5-0.37 62.14 0.08-14.17 20.32-29.87 45.84-42.85 67.31z"/>
		<path class="s1" d="m688.76 406.45c2.3-4.05 7.74-14.66 11-17.04 1.35-0.32 4.28-0.52 4.91 0.31 4.97 6.56 16.81 25.43 20.17 32.09 2.01 2.33 10.3 15.95 12.41 19.31l28.54 46.1 58.6 94.06c9.74 15.58 20.48 32.05 29.87 47.71l-53.38 0.02c-8.58 0.01-20.15 0.37-28.54-0.09-15.43-24.05-30.41-49.97-45.57-74.34-7.3-11.75-18.18-28.24-24.43-40.05-24.44 37.7-47.29 76.75-72.24 114.42-28.93 0.19-58.68 0.37-87.58 0.01q22.39-34.15 45.44-67.86c2.68-2.42 20.57-30.34 23.68-35.1q26.01-39.33 51.33-79.09c8.29-12.89 17.22-28.04 25.79-40.46z"/>
	</g>
</svg>